<?xml version="1.0" encoding="UTF-8" standalone="no"?>
<!DOCTYPE svg PUBLIC "-//W3C//DTD SVG 1.1//EN"
 "http://www.w3.org/Graphics/SVG/1.1/DTD/svg11.dtd">
<!-- Generated by graphviz version 2.26.3 (20100126.1600)
 -->
<!-- Title: G Pages: 1 -->
<svg width="796pt" height="1705pt"
 viewBox="0.00 0.00 796.00 1704.86" xmlns="http://www.w3.org/2000/svg" xmlns:xlink="http://www.w3.org/1999/xlink">
<g id="graph1" class="graph" transform="scale(1 1) rotate(0) translate(4 1700.86)">
<title>G</title>
<polygon fill="white" stroke="white" points="-4,5 -4,-1700.86 793,-1700.86 793,5 -4,5"/>
<g id="graph2" class="cluster"><title>cluster_Riverline</title>
<polyline fill="none" stroke="gray" points="24,-182.858 768,-182.858 "/>
<path fill="none" stroke="gray" d="M768,-182.858C774,-182.858 780,-188.858 780,-194.858"/>
<polyline fill="none" stroke="gray" points="780,-194.858 780,-1676.86 "/>
<path fill="none" stroke="gray" d="M780,-1676.86C780,-1682.86 774,-1688.86 768,-1688.86"/>
<polyline fill="none" stroke="gray" points="768,-1688.86 24,-1688.86 "/>
<path fill="none" stroke="gray" d="M24,-1688.86C18,-1688.86 12,-1682.86 12,-1676.86"/>
<polyline fill="none" stroke="gray" points="12,-1676.86 12,-194.858 "/>
<path fill="none" stroke="gray" d="M12,-194.858C12,-188.858 18,-182.858 24,-182.858"/>
<text text-anchor="middle" x="396" y="-1674.96" font-family="Times Roman,serif" font-size="11.00" fill="gray">Riverline</text>
</g>
<g id="graph3" class="cluster"><title>cluster_Riverline\DynamoDB</title>
<polyline fill="none" stroke="gray" points="32,-190.858 760,-190.858 "/>
<path fill="none" stroke="gray" d="M760,-190.858C766,-190.858 772,-196.858 772,-202.858"/>
<polyline fill="none" stroke="gray" points="772,-202.858 772,-1646.86 "/>
<path fill="none" stroke="gray" d="M772,-1646.86C772,-1652.86 766,-1658.86 760,-1658.86"/>
<polyline fill="none" stroke="gray" points="760,-1658.86 32,-1658.86 "/>
<path fill="none" stroke="gray" d="M32,-1658.86C26,-1658.86 20,-1652.86 20,-1646.86"/>
<polyline fill="none" stroke="gray" points="20,-1646.86 20,-202.858 "/>
<path fill="none" stroke="gray" d="M20,-202.858C20,-196.858 26,-190.858 32,-190.858"/>
<text text-anchor="middle" x="396" y="-1644.96" font-family="Times Roman,serif" font-size="11.00" fill="gray">DynamoDB</text>
</g>
<g id="graph4" class="cluster"><title>cluster_Riverline\DynamoDB\Batch</title>
<polyline fill="none" stroke="gray" points="564,-1048.86 674,-1048.86 "/>
<path fill="none" stroke="gray" d="M674,-1048.86C680,-1048.86 686,-1054.86 686,-1060.86"/>
<polyline fill="none" stroke="gray" points="686,-1060.86 686,-1110.86 "/>
<path fill="none" stroke="gray" d="M686,-1110.86C686,-1116.86 680,-1122.86 674,-1122.86"/>
<polyline fill="none" stroke="gray" points="674,-1122.86 564,-1122.86 "/>
<path fill="none" stroke="gray" d="M564,-1122.86C558,-1122.86 552,-1116.86 552,-1110.86"/>
<polyline fill="none" stroke="gray" points="552,-1110.86 552,-1060.86 "/>
<path fill="none" stroke="gray" d="M552,-1060.86C552,-1054.86 558,-1048.86 564,-1048.86"/>
<text text-anchor="middle" x="619" y="-1108.96" font-family="Times Roman,serif" font-size="11.00" fill="gray">Batch</text>
</g>
<g id="graph5" class="cluster"><title>cluster_Riverline\DynamoDB\Context</title>
<polyline fill="none" stroke="gray" points="40,-1284.86 657,-1284.86 "/>
<path fill="none" stroke="gray" d="M657,-1284.86C663,-1284.86 669,-1290.86 669,-1296.86"/>
<polyline fill="none" stroke="gray" points="669,-1296.86 669,-1616.86 "/>
<path fill="none" stroke="gray" d="M669,-1616.86C669,-1622.86 663,-1628.86 657,-1628.86"/>
<polyline fill="none" stroke="gray" points="657,-1628.86 40,-1628.86 "/>
<path fill="none" stroke="gray" d="M40,-1628.86C34,-1628.86 28,-1622.86 28,-1616.86"/>
<polyline fill="none" stroke="gray" points="28,-1616.86 28,-1296.86 "/>
<path fill="none" stroke="gray" d="M28,-1296.86C28,-1290.86 34,-1284.86 40,-1284.86"/>
<text text-anchor="middle" x="348.5" y="-1614.96" font-family="Times Roman,serif" font-size="11.00" fill="gray">Context</text>
</g>
<g id="graph6" class="cluster"><title>cluster_Riverline\DynamoDB\Exception</title>
<polyline fill="none" stroke="gray" points="249,-198.858 752,-198.858 "/>
<path fill="none" stroke="gray" d="M752,-198.858C758,-198.858 764,-204.858 764,-210.858"/>
<polyline fill="none" stroke="gray" points="764,-210.858 764,-368.858 "/>
<path fill="none" stroke="gray" d="M764,-368.858C764,-374.858 758,-380.858 752,-380.858"/>
<polyline fill="none" stroke="gray" points="752,-380.858 249,-380.858 "/>
<path fill="none" stroke="gray" d="M249,-380.858C243,-380.858 237,-374.858 237,-368.858"/>
<polyline fill="none" stroke="gray" points="237,-368.858 237,-210.858 "/>
<path fill="none" stroke="gray" d="M237,-210.858C237,-204.858 243,-198.858 249,-198.858"/>
<text text-anchor="middle" x="500.5" y="-366.958" font-family="Times Roman,serif" font-size="11.00" fill="gray">Exception</text>
</g>
<g id="graph7" class="cluster"><title>cluster_Riverline\DynamoDB\Table</title>
<polyline fill="none" stroke="gray" points="544,-434.858 694,-434.858 "/>
<path fill="none" stroke="gray" d="M694,-434.858C700,-434.858 706,-440.858 706,-446.858"/>
<polyline fill="none" stroke="gray" points="706,-446.858 706,-712.858 "/>
<path fill="none" stroke="gray" d="M706,-712.858C706,-718.858 700,-724.858 694,-724.858"/>
<polyline fill="none" stroke="gray" points="694,-724.858 544,-724.858 "/>
<path fill="none" stroke="gray" d="M544,-724.858C538,-724.858 532,-718.858 532,-712.858"/>
<polyline fill="none" stroke="gray" points="532,-712.858 532,-446.858 "/>
<path fill="none" stroke="gray" d="M532,-446.858C532,-440.858 538,-434.858 544,-434.858"/>
<text text-anchor="middle" x="619" y="-710.958" font-family="Times Roman,serif" font-size="11.00" fill="gray">Table</text>
</g>
<!-- \\Riverline\\DynamoDB\\Batch\\BatchCollection -->
<g id="node4" class="node"><title>\\Riverline\\DynamoDB\\Batch\\BatchCollection</title>
<a xlink:href="Riverline.DynamoDB.Batch.BatchCollection.html" xlink:title="BatchCollection" target="_parent">
<polygon fill="none" stroke="black" points="678,-1092.86 560,-1092.86 560,-1056.86 678,-1056.86 678,-1092.86"/>
<text text-anchor="middle" x="619" y="-1071.96" font-family="Courier,monospace" font-size="11.00">BatchCollection</text>
</a>
</g>
<!-- \\ArrayAccess -->
<g id="node51" class="node"><title>\\ArrayAccess</title>
<ellipse fill="none" stroke="black" cx="304" cy="-156.858" rx="77.0746" ry="18.3848"/>
<text text-anchor="middle" x="304" y="-153.258" font-family="Times Roman,serif" font-size="14.00" fill="gray">\\ArrayAccess</text>
</g>
<!-- \\Riverline\\DynamoDB\\Batch\\BatchCollection&#45;&gt;\\ArrayAccess -->
<g id="edge38" class="edge"><title>\\Riverline\\DynamoDB\\Batch\\BatchCollection&#45;&gt;\\ArrayAccess</title>
<path fill="none" stroke="black" stroke-dasharray="1,5" d="M559.686,-1080.75C532.204,-1080.06 501.409,-1073.79 482,-1052.86 351.907,-912.552 526.577,-346.58 410,-194.858 401.742,-184.111 390.183,-176.398 377.716,-170.863"/>
<polygon fill="none" stroke="black" points="378.632,-167.462 368.046,-167.042 376.06,-173.972 378.632,-167.462"/>
</g>
<!-- \\IteratorAggregate -->
<g id="node53" class="node"><title>\\IteratorAggregate</title>
<ellipse fill="none" stroke="black" cx="304" cy="-48.8581" rx="106.066" ry="18.3848"/>
<text text-anchor="middle" x="304" y="-45.2581" font-family="Times Roman,serif" font-size="14.00" fill="gray">\\IteratorAggregate</text>
</g>
<!-- \\Riverline\\DynamoDB\\Batch\\BatchCollection&#45;&gt;\\IteratorAggregate -->
<g id="edge40" class="edge"><title>\\Riverline\\DynamoDB\\Batch\\BatchCollection&#45;&gt;\\IteratorAggregate</title>
<path fill="none" stroke="black" stroke-dasharray="1,5" d="M559.941,-1080.85C532.35,-1080.22 501.384,-1073.98 482,-1052.86 334.795,-892.471 549.825,-242.718 410,-75.8581 406.379,-71.5369 402.172,-67.8548 397.564,-64.7218"/>
<polygon fill="none" stroke="black" points="399.279,-61.6698 388.877,-59.6558 395.752,-67.7167 399.279,-61.6698"/>
</g>
<!-- \\Countable -->
<g id="node56" class="node"><title>\\Countable</title>
<ellipse fill="none" stroke="black" cx="304" cy="-102.858" rx="67.8823" ry="18.3848"/>
<text text-anchor="middle" x="304" y="-99.2581" font-family="Times Roman,serif" font-size="14.00" fill="gray">\\Countable</text>
</g>
<!-- \\Riverline\\DynamoDB\\Batch\\BatchCollection&#45;&gt;\\Countable -->
<g id="edge42" class="edge"><title>\\Riverline\\DynamoDB\\Batch\\BatchCollection&#45;&gt;\\Countable</title>
<path fill="none" stroke="black" stroke-dasharray="1,5" d="M559.98,-1080.81C532.398,-1080.17 501.429,-1073.94 482,-1052.86 342.562,-901.585 542.477,-287.263 410,-129.858 402.166,-120.55 391.615,-114.21 380.197,-109.935"/>
<polygon fill="none" stroke="black" points="381.034,-106.528 370.443,-106.81 378.899,-113.194 381.034,-106.528"/>
</g>
<!-- \\Riverline\\DynamoDB\\Context\\BatchWrite -->
<g id="node6" class="node"><title>\\Riverline\\DynamoDB\\Context\\BatchWrite</title>
<a xlink:href="Riverline.DynamoDB.Context.BatchWrite.html" xlink:title="BatchWrite" target="_parent">
<polygon fill="none" stroke="black" points="661,-1382.86 577,-1382.86 577,-1346.86 661,-1346.86 661,-1382.86"/>
<text text-anchor="middle" x="619" y="-1361.96" font-family="Courier,monospace" font-size="11.00">BatchWrite</text>
</a>
</g>
<!-- \\Riverline\\DynamoDB\\Context\\BatchWrite&#45;&gt;\\Countable -->
<g id="edge54" class="edge"><title>\\Riverline\\DynamoDB\\Context\\BatchWrite&#45;&gt;\\Countable</title>
<path fill="none" stroke="black" stroke-dasharray="1,5" d="M576.785,-1368.97C545.721,-1369.44 505.042,-1364.24 482,-1337.86 305.109,-1135.3 581.273,-337.184 410,-129.858 402.252,-120.479 391.743,-114.103 380.342,-109.815"/>
<polygon fill="none" stroke="black" points="381.186,-106.41 370.595,-106.684 379.045,-113.075 381.186,-106.41"/>
</g>
<!-- \\Riverline\\DynamoDB\\Context\\Delete -->
<g id="node7" class="node"><title>\\Riverline\\DynamoDB\\Context\\Delete</title>
<a xlink:href="Riverline.DynamoDB.Context.Delete.html" xlink:title="Delete" target="_parent">
<polygon fill="none" stroke="black" points="647,-1490.86 591,-1490.86 591,-1454.86 647,-1454.86 647,-1490.86"/>
<text text-anchor="middle" x="619" y="-1469.96" font-family="Courier,monospace" font-size="11.00">Delete</text>
</a>
</g>
<!-- \\Riverline\\DynamoDB\\Context\\Put -->
<g id="node8" class="node"><title>\\Riverline\\DynamoDB\\Context\\Put</title>
<a xlink:href="Riverline.DynamoDB.Context.Put.html" xlink:title="Put" target="_parent">
<polygon fill="none" stroke="black" points="331,-1463.86 277,-1463.86 277,-1427.86 331,-1427.86 331,-1463.86"/>
<text text-anchor="middle" x="304" y="-1442.96" font-family="Courier,monospace" font-size="11.00">Put</text>
</a>
</g>
<!-- \\Riverline\\DynamoDB\\Context\\Delete&#45;&gt;\\Riverline\\DynamoDB\\Context\\Put -->
<g id="edge20" class="edge"><title>\\Riverline\\DynamoDB\\Context\\Delete&#45;&gt;\\Riverline\\DynamoDB\\Context\\Put</title>
<path fill="none" stroke="black" d="M590.49,-1470.41C533.394,-1465.52 405.045,-1454.52 341.335,-1449.06"/>
<polygon fill="none" stroke="black" points="341.582,-1445.57 331.32,-1448.2 340.984,-1452.54 341.582,-1445.57"/>
</g>
<!-- \\Riverline\\DynamoDB\\Context\\Query -->
<g id="node9" class="node"><title>\\Riverline\\DynamoDB\\Context\\Query</title>
<a xlink:href="Riverline.DynamoDB.Context.Query.html" xlink:title="Query" target="_parent">
<polygon fill="none" stroke="black" points="646,-1598.86 592,-1598.86 592,-1562.86 646,-1562.86 646,-1598.86"/>
<text text-anchor="middle" x="619" y="-1577.96" font-family="Courier,monospace" font-size="11.00">Query</text>
</a>
</g>
<!-- \\Riverline\\DynamoDB\\Context\\Collection -->
<g id="node12" class="node"><title>\\Riverline\\DynamoDB\\Context\\Collection</title>
<a xlink:href="Riverline.DynamoDB.Context.Collection.html" xlink:title="«abstract»&lt;br/&gt;Collection" target="_parent">
<polygon fill="none" stroke="black" points="346,-1571.86 262,-1571.86 262,-1535.86 346,-1535.86 346,-1571.86"/>
<text text-anchor="start" x="270" y="-1559.29" font-family="Courier,monospace" font-size="11.00">«abstract»</text>
<text text-anchor="start" x="270" y="-1546.09" font-family="Courier,monospace" font-size="11.00">Collection</text>
</a>
</g>
<!-- \\Riverline\\DynamoDB\\Context\\Query&#45;&gt;\\Riverline\\DynamoDB\\Context\\Collection -->
<g id="edge22" class="edge"><title>\\Riverline\\DynamoDB\\Context\\Query&#45;&gt;\\Riverline\\DynamoDB\\Context\\Collection</title>
<path fill="none" stroke="black" d="M591.871,-1578.53C539.705,-1574.06 424.588,-1564.19 356.792,-1558.38"/>
<polygon fill="none" stroke="black" points="357.003,-1554.89 346.741,-1557.52 356.405,-1561.86 357.003,-1554.89"/>
</g>
<!-- \\Riverline\\DynamoDB\\Context\\Get -->
<g id="node10" class="node"><title>\\Riverline\\DynamoDB\\Context\\Get</title>
<a xlink:href="Riverline.DynamoDB.Context.Get.html" xlink:title="Get" target="_parent">
<polygon fill="none" stroke="black" points="90,-1571.86 36,-1571.86 36,-1535.86 90,-1535.86 90,-1571.86"/>
<text text-anchor="middle" x="63" y="-1550.96" font-family="Courier,monospace" font-size="11.00">Get</text>
</a>
</g>
<!-- \\Riverline\\DynamoDB\\Context\\Scan -->
<g id="node11" class="node"><title>\\Riverline\\DynamoDB\\Context\\Scan</title>
<a xlink:href="Riverline.DynamoDB.Context.Scan.html" xlink:title="Scan" target="_parent">
<polygon fill="none" stroke="black" points="646,-1544.86 592,-1544.86 592,-1508.86 646,-1508.86 646,-1544.86"/>
<text text-anchor="middle" x="619" y="-1523.96" font-family="Courier,monospace" font-size="11.00">Scan</text>
</a>
</g>
<!-- \\Riverline\\DynamoDB\\Context\\Scan&#45;&gt;\\Riverline\\DynamoDB\\Context\\Collection -->
<g id="edge24" class="edge"><title>\\Riverline\\DynamoDB\\Context\\Scan&#45;&gt;\\Riverline\\DynamoDB\\Context\\Collection</title>
<path fill="none" stroke="black" d="M591.871,-1529.18C539.705,-1533.65 424.588,-1543.52 356.792,-1549.33"/>
<polygon fill="none" stroke="black" points="356.405,-1545.85 346.741,-1550.19 357.003,-1552.83 356.405,-1545.85"/>
</g>
<!-- \\Riverline\\DynamoDB\\Context\\Collection&#45;&gt;\\Riverline\\DynamoDB\\Context\\Get -->
<g id="edge26" class="edge"><title>\\Riverline\\DynamoDB\\Context\\Collection&#45;&gt;\\Riverline\\DynamoDB\\Context\\Get</title>
<path fill="none" stroke="black" d="M261.469,-1553.86C215.779,-1553.86 143.879,-1553.86 100.314,-1553.86"/>
<polygon fill="none" stroke="black" points="100.146,-1550.36 90.1463,-1553.86 100.146,-1557.36 100.146,-1550.36"/>
</g>
<!-- \\Riverline\\DynamoDB\\Context\\Update -->
<g id="node13" class="node"><title>\\Riverline\\DynamoDB\\Context\\Update</title>
<a xlink:href="Riverline.DynamoDB.Context.Update.html" xlink:title="Update" target="_parent">
<polygon fill="none" stroke="black" points="647,-1436.86 591,-1436.86 591,-1400.86 647,-1400.86 647,-1436.86"/>
<text text-anchor="middle" x="619" y="-1415.96" font-family="Courier,monospace" font-size="11.00">Update</text>
</a>
</g>
<!-- \\Riverline\\DynamoDB\\Context\\Update&#45;&gt;\\Riverline\\DynamoDB\\Context\\Put -->
<g id="edge28" class="edge"><title>\\Riverline\\DynamoDB\\Context\\Update&#45;&gt;\\Riverline\\DynamoDB\\Context\\Put</title>
<path fill="none" stroke="black" d="M590.49,-1421.3C533.394,-1426.2 405.045,-1437.2 341.335,-1442.66"/>
<polygon fill="none" stroke="black" points="340.984,-1439.18 331.32,-1443.52 341.582,-1446.15 340.984,-1439.18"/>
</g>
<!-- \\Riverline\\DynamoDB\\Context\\BatchGet -->
<g id="node14" class="node"><title>\\Riverline\\DynamoDB\\Context\\BatchGet</title>
<a xlink:href="Riverline.DynamoDB.Context.BatchGet.html" xlink:title="BatchGet" target="_parent">
<polygon fill="none" stroke="black" points="654,-1328.86 584,-1328.86 584,-1292.86 654,-1292.86 654,-1328.86"/>
<text text-anchor="middle" x="619" y="-1307.96" font-family="Courier,monospace" font-size="11.00">BatchGet</text>
</a>
</g>
<!-- \\Riverline\\DynamoDB\\Context\\BatchGet&#45;&gt;\\Countable -->
<g id="edge56" class="edge"><title>\\Riverline\\DynamoDB\\Context\\BatchGet&#45;&gt;\\Countable</title>
<path fill="none" stroke="black" stroke-dasharray="1,5" d="M583.262,-1316.22C551.73,-1318.73 507.008,-1316.42 482,-1288.86 308.608,-1097.74 574.6,-328.598 410,-129.858 402.24,-120.489 391.726,-114.118 380.322,-109.831"/>
<polygon fill="none" stroke="black" points="381.166,-106.426 370.574,-106.701 379.025,-113.091 381.166,-106.426"/>
</g>
<!-- \\Riverline\\DynamoDB\\Exception\\ConfigurationException -->
<g id="node16" class="node"><title>\\Riverline\\DynamoDB\\Exception\\ConfigurationException</title>
<a xlink:href="Riverline.DynamoDB.Exception.ConfigurationException.html" xlink:title="ConfigurationException" target="_parent">
<polygon fill="none" stroke="black" points="701,-296.858 537,-296.858 537,-260.858 701,-260.858 701,-296.858"/>
<text text-anchor="middle" x="619" y="-275.958" font-family="Courier,monospace" font-size="11.00">ConfigurationException</text>
</a>
</g>
<!-- \\Exception -->
<g id="node41" class="node"><title>\\Exception</title>
<ellipse fill="none" stroke="black" cx="63" cy="-79.8581" rx="62.9325" ry="18.3848"/>
<text text-anchor="middle" x="63" y="-76.2581" font-family="Times Roman,serif" font-size="14.00" fill="gray">\Exception</text>
</g>
<!-- \\Riverline\\DynamoDB\\Exception\\ConfigurationException&#45;&gt;\\Exception -->
<g id="edge12" class="edge"><title>\\Riverline\\DynamoDB\\Exception\\ConfigurationException&#45;&gt;\\Exception</title>
<path fill="none" stroke="black" d="M536.389,-276.936C516.648,-272.852 496.98,-265.291 482,-251.858 402.253,-180.347 490.36,-92.6795 410,-21.8581 374.093,9.78724 351.09,-11.4187 304,-2.85806"/>
</g>
<!-- \\Riverline\\DynamoDB\\Exception\\ServerException -->
<g id="node17" class="node"><title>\\Riverline\\DynamoDB\\Exception\\ServerException</title>
<a xlink:href="Riverline.DynamoDB.Exception.ServerException.html" xlink:title="ServerException" target="_parent">
<polygon fill="none" stroke="black" points="363,-296.858 245,-296.858 245,-260.858 363,-260.858 363,-296.858"/>
<text text-anchor="middle" x="304" y="-275.958" font-family="Courier,monospace" font-size="11.00">ServerException</text>
</a>
</g>
<!-- \\Riverline\\DynamoDB\\Exception\\ServerException&#45;&gt;\\Exception -->
<g id="edge14" class="edge"><title>\\Riverline\\DynamoDB\\Exception\\ServerException&#45;&gt;\\Exception</title>
<path fill="none" stroke="black" d="M244.773,-274.2C228.704,-270.963 211.917,-265.621 198,-256.858 138.907,-219.651 95.9784,-146.791 75.8342,-107.141"/>
<polygon fill="none" stroke="black" points="78.7882,-105.22 71.2077,-97.818 72.5178,-108.332 78.7882,-105.22"/>
</g>
<!-- \\Riverline\\DynamoDB\\Exception\\AttributesException -->
<g id="node18" class="node"><title>\\Riverline\\DynamoDB\\Exception\\AttributesException</title>
<a xlink:href="Riverline.DynamoDB.Exception.AttributesException.html" xlink:title="AttributesException" target="_parent">
<polygon fill="none" stroke="black" points="691,-242.858 547,-242.858 547,-206.858 691,-206.858 691,-242.858"/>
<text text-anchor="middle" x="619" y="-221.958" font-family="Courier,monospace" font-size="11.00">AttributesException</text>
</a>
</g>
<!-- \\Riverline\\DynamoDB\\Exception\\AttributesException&#45;&gt;\\Exception -->
<g id="edge16" class="edge"><title>\\Riverline\\DynamoDB\\Exception\\AttributesException&#45;&gt;\\Exception</title>
<path fill="none" stroke="black" d="M606.294,-206.597C576.942,-165.966 500.008,-68.0442 410,-21.8581 367.417,-0.00731754 351.09,-11.4187 304,-2.85806"/>
<path fill="none" stroke="black" d="M304,-2.85806C228.035,10.9517 142.765,-30.5075 96.7844,-57.8463"/>
<polygon fill="none" stroke="black" points="94.8564,-54.9223 88.1266,-63.1052 98.4905,-60.9051 94.8564,-54.9223"/>
</g>
<!-- \\Riverline\\DynamoDB\\Exception\\ProvisionedThroughputExceededException -->
<g id="node19" class="node"><title>\\Riverline\\DynamoDB\\Exception\\ProvisionedThroughputExceededException</title>
<a xlink:href="Riverline.DynamoDB.Exception.ProvisionedThroughputExceededException.html" xlink:title="ProvisionedThroughputExceededException" target="_parent">
<polygon fill="none" stroke="black" points="755,-350.858 483,-350.858 483,-314.858 755,-314.858 755,-350.858"/>
<text text-anchor="middle" x="619" y="-329.958" font-family="Courier,monospace" font-size="11.00">ProvisionedThroughputExceededException</text>
</a>
</g>
<!-- \\Riverline\\DynamoDB\\Exception\\ProvisionedThroughputExceededException&#45;&gt;\\Riverline\\DynamoDB\\Exception\\ServerException -->
<g id="edge18" class="edge"><title>\\Riverline\\DynamoDB\\Exception\\ProvisionedThroughputExceededException&#45;&gt;\\Riverline\\DynamoDB\\Exception\\ServerException</title>
<path fill="none" stroke="black" d="M513.672,-314.802C467.407,-306.871 414.372,-297.779 373.217,-290.724"/>
<polygon fill="none" stroke="black" points="373.737,-287.262 363.29,-289.022 372.554,-294.161 373.737,-287.262"/>
</g>
<!-- \\Riverline\\DynamoDB\\Table\\ProvisionedThroughput -->
<g id="node21" class="node"><title>\\Riverline\\DynamoDB\\Table\\ProvisionedThroughput</title>
<a xlink:href="Riverline.DynamoDB.Table.ProvisionedThroughput.html" xlink:title="ProvisionedThroughput" target="_parent">
<polygon fill="none" stroke="black" points="698,-694.858 540,-694.858 540,-658.858 698,-658.858 698,-694.858"/>
<text text-anchor="middle" x="619" y="-673.958" font-family="Courier,monospace" font-size="11.00">ProvisionedThroughput</text>
</a>
</g>
<!-- \\Riverline\\DynamoDB\\Table\\KeySchema -->
<g id="node22" class="node"><title>\\Riverline\\DynamoDB\\Table\\KeySchema</title>
<a xlink:href="Riverline.DynamoDB.Table.KeySchema.html" xlink:title="KeySchema" target="_parent">
<polygon fill="none" stroke="black" points="657,-640.858 581,-640.858 581,-604.858 657,-604.858 657,-640.858"/>
<text text-anchor="middle" x="619" y="-619.958" font-family="Courier,monospace" font-size="11.00">KeySchema</text>
</a>
</g>
<!-- \\Riverline\\DynamoDB\\Table\\KeySchemaElement -->
<g id="node23" class="node"><title>\\Riverline\\DynamoDB\\Table\\KeySchemaElement</title>
<a xlink:href="Riverline.DynamoDB.Table.KeySchemaElement.html" xlink:title="KeySchemaElement" target="_parent">
<polygon fill="none" stroke="black" points="681,-586.858 557,-586.858 557,-550.858 681,-550.858 681,-586.858"/>
<text text-anchor="middle" x="619" y="-565.958" font-family="Courier,monospace" font-size="11.00">KeySchemaElement</text>
</a>
</g>
<!-- \\Riverline\\DynamoDB\\Table\\TableCollection -->
<g id="node24" class="node"><title>\\Riverline\\DynamoDB\\Table\\TableCollection</title>
<a xlink:href="Riverline.DynamoDB.Table.TableCollection.html" xlink:title="TableCollection" target="_parent">
<polygon fill="none" stroke="black" points="678,-532.858 560,-532.858 560,-496.858 678,-496.858 678,-532.858"/>
<text text-anchor="middle" x="619" y="-511.958" font-family="Courier,monospace" font-size="11.00">TableCollection</text>
</a>
</g>
<!-- \\Riverline\\DynamoDB\\Table\\TableCollection&#45;&gt;\\IteratorAggregate -->
<g id="edge46" class="edge"><title>\\Riverline\\DynamoDB\\Table\\TableCollection&#45;&gt;\\IteratorAggregate</title>
<path fill="none" stroke="black" stroke-dasharray="1,5" d="M559.931,-517.602C532.679,-515.636 502.008,-508.302 482,-487.858 351.984,-355.006 536.325,-212.224 410,-75.8581 406.088,-71.6351 401.616,-68.0337 396.772,-64.9658"/>
<polygon fill="none" stroke="black" points="398.144,-61.7272 387.691,-60.0008 394.786,-67.8691 398.144,-61.7272"/>
</g>
<!-- \\Riverline\\DynamoDB\\Table\\TableCollection&#45;&gt;\\Countable -->
<g id="edge48" class="edge"><title>\\Riverline\\DynamoDB\\Table\\TableCollection&#45;&gt;\\Countable</title>
<path fill="none" stroke="black" stroke-dasharray="1,5" d="M559.811,-517.353C532.698,-515.298 502.181,-507.961 482,-487.858 367.016,-373.32 521.801,-247.505 410,-129.858 401.671,-121.093 390.927,-115.018 379.486,-110.837"/>
<polygon fill="none" stroke="black" points="380.339,-107.436 369.749,-107.752 378.225,-114.109 380.339,-107.436"/>
</g>
<!-- \\Riverline\\DynamoDB\\Table\\TableDescription -->
<g id="node25" class="node"><title>\\Riverline\\DynamoDB\\Table\\TableDescription</title>
<a xlink:href="Riverline.DynamoDB.Table.TableDescription.html" xlink:title="TableDescription" target="_parent">
<polygon fill="none" stroke="black" points="681,-478.858 557,-478.858 557,-442.858 681,-442.858 681,-478.858"/>
<text text-anchor="middle" x="619" y="-457.958" font-family="Courier,monospace" font-size="11.00">TableDescription</text>
</a>
</g>
<!-- \\Riverline\\DynamoDB\\Expected -->
<g id="node26" class="node"><title>\\Riverline\\DynamoDB\\Expected</title>
<a xlink:href="Riverline.DynamoDB.Expected.html" xlink:title="Expected" target="_parent">
<polygon fill="none" stroke="black" points="654,-1274.86 584,-1274.86 584,-1238.86 654,-1238.86 654,-1274.86"/>
<text text-anchor="middle" x="619" y="-1253.96" font-family="Courier,monospace" font-size="11.00">Expected</text>
</a>
</g>
<!-- \\Riverline\\DynamoDB\\Expected&#45;&gt;\\ArrayAccess -->
<g id="edge30" class="edge"><title>\\Riverline\\DynamoDB\\Expected&#45;&gt;\\ArrayAccess</title>
<path fill="none" stroke="black" stroke-dasharray="1,5" d="M583.46,-1260.72C551.837,-1261.99 506.857,-1258.04 482,-1229.86 329.485,-1056.96 549.165,-378.676 410,-194.858 401.819,-184.052 390.295,-176.312 377.839,-170.77"/>
<polygon fill="none" stroke="black" points="378.758,-167.37 368.172,-166.946 376.183,-173.879 378.758,-167.37"/>
</g>
<!-- \\Riverline\\DynamoDB\\Expected&#45;&gt;\\IteratorAggregate -->
<g id="edge32" class="edge"><title>\\Riverline\\DynamoDB\\Expected&#45;&gt;\\IteratorAggregate</title>
<path fill="none" stroke="black" stroke-dasharray="1,5" d="M583.412,-1260.77C551.757,-1262.06 506.756,-1258.13 482,-1229.86 312.719,-1036.56 573.92,-273.722 410,-75.8581 406.53,-71.6697 402.51,-68.0805 398.106,-65.0089"/>
<polygon fill="none" stroke="black" points="399.592,-61.8205 389.208,-59.7186 396.015,-67.8374 399.592,-61.8205"/>
</g>
<!-- \\Riverline\\DynamoDB\\Repeater -->
<g id="node27" class="node"><title>\\Riverline\\DynamoDB\\Repeater</title>
<a xlink:href="Riverline.DynamoDB.Repeater.html" xlink:title="Repeater" target="_parent">
<polygon fill="none" stroke="black" points="654,-1038.86 584,-1038.86 584,-1002.86 654,-1002.86 654,-1038.86"/>
<text text-anchor="middle" x="619" y="-1017.96" font-family="Courier,monospace" font-size="11.00">Repeater</text>
</a>
</g>
<!-- \\Riverline\\DynamoDB\\UpdateAction -->
<g id="node28" class="node"><title>\\Riverline\\DynamoDB\\UpdateAction</title>
<a xlink:href="Riverline.DynamoDB.UpdateAction.html" xlink:title="UpdateAction" target="_parent">
<polygon fill="none" stroke="black" points="668,-984.858 570,-984.858 570,-948.858 668,-948.858 668,-984.858"/>
<text text-anchor="middle" x="619" y="-963.958" font-family="Courier,monospace" font-size="11.00">UpdateAction</text>
</a>
</g>
<!-- \\Riverline\\DynamoDB\\Collection -->
<g id="node29" class="node"><title>\\Riverline\\DynamoDB\\Collection</title>
<a xlink:href="Riverline.DynamoDB.Collection.html" xlink:title="Collection" target="_parent">
<polygon fill="none" stroke="black" points="661,-930.858 577,-930.858 577,-894.858 661,-894.858 661,-930.858"/>
<text text-anchor="middle" x="619" y="-909.958" font-family="Courier,monospace" font-size="11.00">Collection</text>
</a>
</g>
<!-- \\Riverline\\DynamoDB\\Collection&#45;&gt;\\IteratorAggregate -->
<g id="edge34" class="edge"><title>\\Riverline\\DynamoDB\\Collection&#45;&gt;\\IteratorAggregate</title>
<path fill="none" stroke="black" stroke-dasharray="1,5" d="M576.681,-916.781C545.773,-917.113 505.343,-911.815 482,-885.858 361.163,-751.491 527.109,-213.486 410,-75.8581 406.346,-71.5643 402.115,-67.9034 397.488,-64.7861"/>
<polygon fill="none" stroke="black" points="399.182,-61.7224 388.773,-59.7432 395.676,-67.7811 399.182,-61.7224"/>
</g>
<!-- \\Riverline\\DynamoDB\\Collection&#45;&gt;\\Countable -->
<g id="edge36" class="edge"><title>\\Riverline\\DynamoDB\\Collection&#45;&gt;\\Countable</title>
<path fill="none" stroke="black" stroke-dasharray="1,5" d="M576.728,-916.739C545.844,-917.049 505.424,-911.741 482,-885.858 368.759,-760.732 519.769,-258.041 410,-129.858 402.087,-120.618 391.496,-114.311 380.064,-110.049"/>
<polygon fill="none" stroke="black" points="380.893,-106.64 370.303,-106.93 378.763,-113.307 380.893,-106.64"/>
</g>
<!-- \\Riverline\\DynamoDB\\Attribute -->
<g id="node30" class="node"><title>\\Riverline\\DynamoDB\\Attribute</title>
<a xlink:href="Riverline.DynamoDB.Attribute.html" xlink:title="Attribute" target="_parent">
<polygon fill="none" stroke="black" points="657,-876.858 581,-876.858 581,-840.858 657,-840.858 657,-876.858"/>
<text text-anchor="middle" x="619" y="-855.958" font-family="Courier,monospace" font-size="11.00">Attribute</text>
</a>
</g>
<!-- \\Riverline\\DynamoDB\\Attribute&#45;&gt;\\IteratorAggregate -->
<g id="edge44" class="edge"><title>\\Riverline\\DynamoDB\\Attribute&#45;&gt;\\IteratorAggregate</title>
<path fill="none" stroke="black" stroke-dasharray="1,5" d="M580.223,-862.679C548.956,-863.424 506.319,-858.729 482,-831.858 368.759,-706.732 519.769,-204.041 410,-75.8581 406.333,-71.5759 402.091,-67.9237 397.457,-64.8132"/>
<polygon fill="none" stroke="black" points="399.141,-61.7446 388.73,-59.7798 395.644,-67.8082 399.141,-61.7446"/>
</g>
<!-- \\Riverline\\DynamoDB\\AttributeCondition -->
<g id="node31" class="node"><title>\\Riverline\\DynamoDB\\AttributeCondition</title>
<a xlink:href="Riverline.DynamoDB.AttributeCondition.html" xlink:title="AttributeCondition" target="_parent">
<polygon fill="none" stroke="black" points="688,-822.858 550,-822.858 550,-786.858 688,-786.858 688,-822.858"/>
<text text-anchor="middle" x="619" y="-801.958" font-family="Courier,monospace" font-size="11.00">AttributeCondition</text>
</a>
</g>
<!-- \\Riverline\\DynamoDB\\ExpectedAttribute -->
<g id="node32" class="node"><title>\\Riverline\\DynamoDB\\ExpectedAttribute</title>
<a xlink:href="Riverline.DynamoDB.ExpectedAttribute.html" xlink:title="ExpectedAttribute" target="_parent">
<polygon fill="none" stroke="black" points="684,-768.858 554,-768.858 554,-732.858 684,-732.858 684,-768.858"/>
<text text-anchor="middle" x="619" y="-747.958" font-family="Courier,monospace" font-size="11.00">ExpectedAttribute</text>
</a>
</g>
<!-- \\Riverline\\DynamoDB\\Item -->
<g id="node33" class="node"><title>\\Riverline\\DynamoDB\\Item</title>
<a xlink:href="Riverline.DynamoDB.Item.html" xlink:title="Item" target="_parent">
<polygon fill="none" stroke="black" points="646,-1220.86 592,-1220.86 592,-1184.86 646,-1184.86 646,-1220.86"/>
<text text-anchor="middle" x="619" y="-1199.96" font-family="Courier,monospace" font-size="11.00">Item</text>
</a>
</g>
<!-- \\Riverline\\DynamoDB\\Item&#45;&gt;\\ArrayAccess -->
<g id="edge50" class="edge"><title>\\Riverline\\DynamoDB\\Item&#45;&gt;\\ArrayAccess</title>
<path fill="none" stroke="black" stroke-dasharray="1,5" d="M591.976,-1206.23C560.468,-1208.48 509.241,-1206.62 482,-1175.86 337.091,-1012.21 542.272,-368.882 410,-194.858 401.799,-184.068 390.265,-176.335 377.806,-170.795"/>
<polygon fill="none" stroke="black" points="378.724,-167.394 368.138,-166.971 376.15,-173.904 378.724,-167.394"/>
</g>
<!-- \\Riverline\\DynamoDB\\Item&#45;&gt;\\IteratorAggregate -->
<g id="edge52" class="edge"><title>\\Riverline\\DynamoDB\\Item&#45;&gt;\\IteratorAggregate</title>
<path fill="none" stroke="black" stroke-dasharray="1,5" d="M591.935,-1206.27C560.386,-1208.56 509.119,-1206.73 482,-1175.86 320.328,-991.817 566.567,-264.261 410,-75.8581 406.524,-71.675 402.499,-68.0899 398.091,-65.0215"/>
<polygon fill="none" stroke="black" points="399.572,-61.8307 389.187,-59.7359 395.999,-67.8501 399.572,-61.8307"/>
</g>
<!-- \\Riverline\\DynamoDB\\Connection -->
<g id="node34" class="node"><title>\\Riverline\\DynamoDB\\Connection</title>
<a xlink:href="Riverline.DynamoDB.Connection.html" xlink:title="Connection" target="_parent">
<polygon fill="none" stroke="black" points="661,-424.858 577,-424.858 577,-388.858 661,-388.858 661,-424.858"/>
<text text-anchor="middle" x="619" y="-403.958" font-family="Courier,monospace" font-size="11.00">Connection</text>
</a>
</g>
<!-- \\Riverline\\DynamoDB\\AttributeUpdate -->
<g id="node35" class="node"><title>\\Riverline\\DynamoDB\\AttributeUpdate</title>
<a xlink:href="Riverline.DynamoDB.AttributeUpdate.html" xlink:title="AttributeUpdate" target="_parent">
<polygon fill="none" stroke="black" points="678,-1166.86 560,-1166.86 560,-1130.86 678,-1130.86 678,-1166.86"/>
<text text-anchor="middle" x="619" y="-1145.96" font-family="Courier,monospace" font-size="11.00">AttributeUpdate</text>
</a>
</g>
<!-- \\Riverline\\DynamoDB\\AttributeUpdate&#45;&gt;\\ArrayAccess -->
<g id="edge58" class="edge"><title>\\Riverline\\DynamoDB\\AttributeUpdate&#45;&gt;\\ArrayAccess</title>
<path fill="none" stroke="black" stroke-dasharray="1,5" d="M559.973,-1154.82C532.389,-1154.18 501.421,-1147.94 482,-1126.86 341.268,-974.066 536.018,-359.996 410,-194.858 401.778,-184.084 390.235,-176.358 377.773,-170.82"/>
<polygon fill="none" stroke="black" points="378.69,-167.419 368.104,-166.997 376.117,-173.929 378.69,-167.419"/>
</g>
<!-- \\Riverline\\DynamoDB\\AttributeUpdate&#45;&gt;\\IteratorAggregate -->
<g id="edge60" class="edge"><title>\\Riverline\\DynamoDB\\AttributeUpdate&#45;&gt;\\IteratorAggregate</title>
<path fill="none" stroke="black" stroke-dasharray="1,5" d="M559.894,-1154.89C532.291,-1154.27 501.329,-1148.03 482,-1126.86 324.15,-953.978 559.897,-255.678 410,-75.8581 406.517,-71.6803 402.487,-68.0993 398.076,-65.034"/>
<polygon fill="none" stroke="black" points="399.553,-61.8409 389.166,-59.7533 395.984,-67.8627 399.553,-61.8409"/>
</g>
</g>
</svg>
