<?xml version="1.0" encoding="UTF-8" standalone="no"?>
<!DOCTYPE svg PUBLIC "-//W3C//DTD SVG 1.1//EN"
 "http://www.w3.org/Graphics/SVG/1.1/DTD/svg11.dtd">
<!-- Generated by graphviz version 2.26.3 (20100126.1600)
 -->
<!-- Title: G Pages: 1 -->
<svg width="648pt" height="1202pt"
 viewBox="0.00 0.00 648.00 1202.00" xmlns="http://www.w3.org/2000/svg" xmlns:xlink="http://www.w3.org/1999/xlink">
<g id="graph1" class="graph" transform="scale(1 1) rotate(0) translate(4 1198)">
<title>G</title>
<polygon fill="white" stroke="white" points="-4,5 -4,-1198 645,-1198 645,5 -4,5"/>
<g id="graph2" class="cluster"><title>cluster_Riverline</title>
<polyline fill="none" stroke="gray" points="20,-206 620,-206 "/>
<path fill="none" stroke="gray" d="M620,-206C626,-206 632,-212 632,-218"/>
<polyline fill="none" stroke="gray" points="632,-218 632,-1174 "/>
<path fill="none" stroke="gray" d="M632,-1174C632,-1180 626,-1186 620,-1186"/>
<polyline fill="none" stroke="gray" points="620,-1186 20,-1186 "/>
<path fill="none" stroke="gray" d="M20,-1186C14,-1186 8,-1180 8,-1174"/>
<polyline fill="none" stroke="gray" points="8,-1174 8,-218 "/>
<path fill="none" stroke="gray" d="M8,-218C8,-212 14,-206 20,-206"/>
<text text-anchor="middle" x="320" y="-1172.1" font-family="Times Roman,serif" font-size="11.00" fill="gray">Riverline</text>
</g>
<g id="graph3" class="cluster"><title>cluster_Riverline\DynamoDB</title>
<polyline fill="none" stroke="gray" points="28,-214 612,-214 "/>
<path fill="none" stroke="gray" d="M612,-214C618,-214 624,-220 624,-226"/>
<polyline fill="none" stroke="gray" points="624,-226 624,-1144 "/>
<path fill="none" stroke="gray" d="M624,-1144C624,-1150 618,-1156 612,-1156"/>
<polyline fill="none" stroke="gray" points="612,-1156 28,-1156 "/>
<path fill="none" stroke="gray" d="M28,-1156C22,-1156 16,-1150 16,-1144"/>
<polyline fill="none" stroke="gray" points="16,-1144 16,-226 "/>
<path fill="none" stroke="gray" d="M16,-226C16,-220 22,-214 28,-214"/>
<text text-anchor="middle" x="320" y="-1142.1" font-family="Times Roman,serif" font-size="11.00" fill="gray">DynamoDB</text>
</g>
<g id="graph4" class="cluster"><title>cluster_Riverline\DynamoDB\Context</title>
<polyline fill="none" stroke="gray" points="36,-890 550,-890 "/>
<path fill="none" stroke="gray" d="M550,-890C556,-890 562,-896 562,-902"/>
<polyline fill="none" stroke="gray" points="562,-902 562,-1114 "/>
<path fill="none" stroke="gray" d="M562,-1114C562,-1120 556,-1126 550,-1126"/>
<polyline fill="none" stroke="gray" points="550,-1126 36,-1126 "/>
<path fill="none" stroke="gray" d="M36,-1126C30,-1126 24,-1120 24,-1114"/>
<polyline fill="none" stroke="gray" points="24,-1114 24,-902 "/>
<path fill="none" stroke="gray" d="M24,-902C24,-896 30,-890 36,-890"/>
<text text-anchor="middle" x="293" y="-1112.1" font-family="Times Roman,serif" font-size="11.00" fill="gray">Context</text>
</g>
<g id="graph5" class="cluster"><title>cluster_Riverline\DynamoDB\Exception</title>
<polyline fill="none" stroke="gray" points="446,-700 604,-700 "/>
<path fill="none" stroke="gray" d="M604,-700C610,-700 616,-706 616,-712"/>
<polyline fill="none" stroke="gray" points="616,-712 616,-870 "/>
<path fill="none" stroke="gray" d="M616,-870C616,-876 610,-882 604,-882"/>
<polyline fill="none" stroke="gray" points="604,-882 446,-882 "/>
<path fill="none" stroke="gray" d="M446,-882C440,-882 434,-876 434,-870"/>
<polyline fill="none" stroke="gray" points="434,-870 434,-712 "/>
<path fill="none" stroke="gray" d="M434,-712C434,-706 440,-700 446,-700"/>
<text text-anchor="middle" x="525" y="-868.1" font-family="Times Roman,serif" font-size="11.00" fill="gray">Exception</text>
</g>
<!-- \\Riverline\\DynamoDB\\Context\\Delete -->
<g id="node4" class="node"><title>\\Riverline\\DynamoDB\\Context\\Delete</title>
<a xlink:href="Riverline.DynamoDB.Context.Delete.html" xlink:title="Delete" target="_parent">
<polygon fill="none" stroke="black" points="553,-988 497,-988 497,-952 553,-952 553,-988"/>
<text text-anchor="middle" x="525" y="-967.1" font-family="Courier,monospace" font-size="11.00">Delete</text>
</a>
</g>
<!-- \\Riverline\\DynamoDB\\Context\\Put -->
<g id="node5" class="node"><title>\\Riverline\\DynamoDB\\Context\\Put</title>
<a xlink:href="Riverline.DynamoDB.Context.Put.html" xlink:title="Put" target="_parent">
<polygon fill="none" stroke="black" points="291,-961 237,-961 237,-925 291,-925 291,-961"/>
<text text-anchor="middle" x="264" y="-940.1" font-family="Courier,monospace" font-size="11.00">Put</text>
</a>
</g>
<!-- \\Riverline\\DynamoDB\\Context\\Delete&#45;&gt;\\Riverline\\DynamoDB\\Context\\Put -->
<g id="edge14" class="edge"><title>\\Riverline\\DynamoDB\\Context\\Delete&#45;&gt;\\Riverline\\DynamoDB\\Context\\Put</title>
<path fill="none" stroke="black" d="M496.322,-967.033C448.873,-962.125 354.053,-952.316 301.405,-946.869"/>
<polygon fill="none" stroke="black" points="301.46,-943.357 291.153,-945.809 300.74,-950.319 301.46,-943.357"/>
</g>
<!-- \\Riverline\\DynamoDB\\Context\\Query -->
<g id="node6" class="node"><title>\\Riverline\\DynamoDB\\Context\\Query</title>
<a xlink:href="Riverline.DynamoDB.Context.Query.html" xlink:title="Query" target="_parent">
<polygon fill="none" stroke="black" points="552,-1096 498,-1096 498,-1060 552,-1060 552,-1096"/>
<text text-anchor="middle" x="525" y="-1075.1" font-family="Courier,monospace" font-size="11.00">Query</text>
</a>
</g>
<!-- \\Riverline\\DynamoDB\\Context\\Collection -->
<g id="node9" class="node"><title>\\Riverline\\DynamoDB\\Context\\Collection</title>
<a xlink:href="Riverline.DynamoDB.Context.Collection.html" xlink:title="«abstract»&lt;br/&gt;Collection" target="_parent">
<polygon fill="none" stroke="black" points="306,-1069 222,-1069 222,-1033 306,-1033 306,-1069"/>
<text text-anchor="start" x="230" y="-1056.43" font-family="Courier,monospace" font-size="11.00">«abstract»</text>
<text text-anchor="start" x="230" y="-1043.23" font-family="Courier,monospace" font-size="11.00">Collection</text>
</a>
</g>
<!-- \\Riverline\\DynamoDB\\Context\\Query&#45;&gt;\\Riverline\\DynamoDB\\Context\\Collection -->
<g id="edge16" class="edge"><title>\\Riverline\\DynamoDB\\Context\\Query&#45;&gt;\\Riverline\\DynamoDB\\Context\\Collection</title>
<path fill="none" stroke="black" d="M497.562,-1075.16C454.773,-1070.74 371.399,-1062.11 316.716,-1056.45"/>
<polygon fill="none" stroke="black" points="316.827,-1052.95 306.52,-1055.4 316.106,-1059.91 316.827,-1052.95"/>
</g>
<!-- \\Riverline\\DynamoDB\\Context\\Get -->
<g id="node7" class="node"><title>\\Riverline\\DynamoDB\\Context\\Get</title>
<a xlink:href="Riverline.DynamoDB.Context.Get.html" xlink:title="Get" target="_parent">
<polygon fill="none" stroke="black" points="86,-1069 32,-1069 32,-1033 86,-1033 86,-1069"/>
<text text-anchor="middle" x="59" y="-1048.1" font-family="Courier,monospace" font-size="11.00">Get</text>
</a>
</g>
<!-- \\Riverline\\DynamoDB\\Context\\Scan -->
<g id="node8" class="node"><title>\\Riverline\\DynamoDB\\Context\\Scan</title>
<a xlink:href="Riverline.DynamoDB.Context.Scan.html" xlink:title="Scan" target="_parent">
<polygon fill="none" stroke="black" points="552,-1042 498,-1042 498,-1006 552,-1006 552,-1042"/>
<text text-anchor="middle" x="525" y="-1021.1" font-family="Courier,monospace" font-size="11.00">Scan</text>
</a>
</g>
<!-- \\Riverline\\DynamoDB\\Context\\Scan&#45;&gt;\\Riverline\\DynamoDB\\Context\\Collection -->
<g id="edge18" class="edge"><title>\\Riverline\\DynamoDB\\Context\\Scan&#45;&gt;\\Riverline\\DynamoDB\\Context\\Collection</title>
<path fill="none" stroke="black" d="M497.562,-1026.84C454.773,-1031.26 371.399,-1039.89 316.716,-1045.55"/>
<polygon fill="none" stroke="black" points="316.106,-1042.09 306.52,-1046.6 316.827,-1049.05 316.106,-1042.09"/>
</g>
<!-- \\Riverline\\DynamoDB\\Context\\Collection&#45;&gt;\\Riverline\\DynamoDB\\Context\\Get -->
<g id="edge20" class="edge"><title>\\Riverline\\DynamoDB\\Context\\Collection&#45;&gt;\\Riverline\\DynamoDB\\Context\\Get</title>
<path fill="none" stroke="black" d="M221.025,-1051C184.211,-1051 131.718,-1051 96.5591,-1051"/>
<polygon fill="none" stroke="black" points="96.2407,-1047.5 86.2406,-1051 96.2406,-1054.5 96.2407,-1047.5"/>
</g>
<!-- \\Riverline\\DynamoDB\\Context\\Update -->
<g id="node10" class="node"><title>\\Riverline\\DynamoDB\\Context\\Update</title>
<a xlink:href="Riverline.DynamoDB.Context.Update.html" xlink:title="Update" target="_parent">
<polygon fill="none" stroke="black" points="553,-934 497,-934 497,-898 553,-898 553,-934"/>
<text text-anchor="middle" x="525" y="-913.1" font-family="Courier,monospace" font-size="11.00">Update</text>
</a>
</g>
<!-- \\Riverline\\DynamoDB\\Context\\Update&#45;&gt;\\Riverline\\DynamoDB\\Context\\Put -->
<g id="edge22" class="edge"><title>\\Riverline\\DynamoDB\\Context\\Update&#45;&gt;\\Riverline\\DynamoDB\\Context\\Put</title>
<path fill="none" stroke="black" d="M496.322,-918.967C448.873,-923.875 354.053,-933.684 301.405,-939.131"/>
<polygon fill="none" stroke="black" points="300.74,-935.681 291.153,-940.191 301.46,-942.643 300.74,-935.681"/>
</g>
<!-- \\Riverline\\DynamoDB\\Exception\\ConfigurationException -->
<g id="node12" class="node"><title>\\Riverline\\DynamoDB\\Exception\\ConfigurationException</title>
<a xlink:href="Riverline.DynamoDB.Exception.ConfigurationException.html" xlink:title="ConfigurationException" target="_parent">
<polygon fill="none" stroke="black" points="607,-852 443,-852 443,-816 607,-816 607,-852"/>
<text text-anchor="middle" x="525" y="-831.1" font-family="Courier,monospace" font-size="11.00">ConfigurationException</text>
</a>
</g>
<!-- \\Exception -->
<g id="node27" class="node"><title>\\Exception</title>
<ellipse fill="none" stroke="black" cx="264" cy="-180" rx="62.9325" ry="18.3848"/>
<text text-anchor="middle" x="264" y="-176.4" font-family="Times Roman,serif" font-size="14.00" fill="gray">\Exception</text>
</g>
<!-- \\Riverline\\DynamoDB\\Exception\\ConfigurationException&#45;&gt;\\Exception -->
<g id="edge8" class="edge"><title>\\Riverline\\DynamoDB\\Exception\\ConfigurationException&#45;&gt;\\Exception</title>
<path fill="none" stroke="black" d="M444.699,-815.754C440.831,-813.203 437.224,-810.301 434,-807 347.252,-718.175 283.975,-318.37 267.961,-208.191"/>
<polygon fill="none" stroke="black" points="271.407,-207.57 266.519,-198.17 264.479,-208.567 271.407,-207.57"/>
</g>
<!-- \\Riverline\\DynamoDB\\Exception\\ServerException -->
<g id="node13" class="node"><title>\\Riverline\\DynamoDB\\Exception\\ServerException</title>
<a xlink:href="Riverline.DynamoDB.Exception.ServerException.html" xlink:title="ServerException" target="_parent">
<polygon fill="none" stroke="black" points="584,-798 466,-798 466,-762 584,-762 584,-798"/>
<text text-anchor="middle" x="525" y="-777.1" font-family="Courier,monospace" font-size="11.00">ServerException</text>
</a>
</g>
<!-- \\Riverline\\DynamoDB\\Exception\\ServerException&#45;&gt;\\Exception -->
<g id="edge10" class="edge"><title>\\Riverline\\DynamoDB\\Exception\\ServerException&#45;&gt;\\Exception</title>
<path fill="none" stroke="black" d="M465.962,-771.701C454.169,-767.676 442.739,-761.74 434,-753 353.835,-672.833 286.662,-312.036 268.71,-208.099"/>
<polygon fill="none" stroke="black" points="272.128,-207.32 266.991,-198.054 265.228,-208.501 272.128,-207.32"/>
</g>
<!-- \\Riverline\\DynamoDB\\Exception\\AttributesException -->
<g id="node14" class="node"><title>\\Riverline\\DynamoDB\\Exception\\AttributesException</title>
<a xlink:href="Riverline.DynamoDB.Exception.AttributesException.html" xlink:title="AttributesException" target="_parent">
<polygon fill="none" stroke="black" points="597,-744 453,-744 453,-708 597,-708 597,-744"/>
<text text-anchor="middle" x="525" y="-723.1" font-family="Courier,monospace" font-size="11.00">AttributesException</text>
</a>
</g>
<!-- \\Riverline\\DynamoDB\\Exception\\AttributesException&#45;&gt;\\Exception -->
<g id="edge12" class="edge"><title>\\Riverline\\DynamoDB\\Exception\\AttributesException&#45;&gt;\\Exception</title>
<path fill="none" stroke="black" d="M452.383,-715.93C445.657,-712.873 439.366,-708.97 434,-704 357.917,-633.526 288.739,-306.401 269.368,-208.045"/>
<polygon fill="none" stroke="black" points="272.754,-207.118 267.402,-197.974 265.883,-208.459 272.754,-207.118"/>
</g>
<!-- \\Riverline\\DynamoDB\\Expected -->
<g id="node15" class="node"><title>\\Riverline\\DynamoDB\\Expected</title>
<a xlink:href="Riverline.DynamoDB.Expected.html" xlink:title="Expected" target="_parent">
<polygon fill="none" stroke="black" points="560,-690 490,-690 490,-654 560,-654 560,-690"/>
<text text-anchor="middle" x="525" y="-669.1" font-family="Courier,monospace" font-size="11.00">Expected</text>
</a>
</g>
<!-- \\ArrayAccess -->
<g id="node36" class="node"><title>\\ArrayAccess</title>
<ellipse fill="none" stroke="black" cx="264" cy="-126" rx="77.0746" ry="18.3848"/>
<text text-anchor="middle" x="264" y="-122.4" font-family="Times Roman,serif" font-size="14.00" fill="gray">\\ArrayAccess</text>
</g>
<!-- \\Riverline\\DynamoDB\\Expected&#45;&gt;\\ArrayAccess -->
<g id="edge24" class="edge"><title>\\Riverline\\DynamoDB\\Expected&#45;&gt;\\ArrayAccess</title>
<path fill="none" stroke="black" stroke-dasharray="1,5" d="M489.309,-670.475C470.078,-667.697 447.576,-660.928 434,-645 290.958,-477.181 516.288,-317.997 370,-153 363.339,-145.487 354.907,-139.925 345.72,-135.83"/>
<polygon fill="none" stroke="black" points="346.91,-132.537 336.32,-132.205 344.391,-139.068 346.91,-132.537"/>
</g>
<!-- \\IteratorAggregate -->
<g id="node38" class="node"><title>\\IteratorAggregate</title>
<ellipse fill="none" stroke="black" cx="264" cy="-72" rx="106.066" ry="18.3848"/>
<text text-anchor="middle" x="264" y="-68.4" font-family="Times Roman,serif" font-size="14.00" fill="gray">\\IteratorAggregate</text>
</g>
<!-- \\Riverline\\DynamoDB\\Expected&#45;&gt;\\IteratorAggregate -->
<g id="edge26" class="edge"><title>\\Riverline\\DynamoDB\\Expected&#45;&gt;\\IteratorAggregate</title>
<path fill="none" stroke="black" stroke-dasharray="1,5" d="M489.232,-670.54C469.976,-667.784 447.475,-661.014 434,-645 276.688,-458.053 530.929,-282.843 370,-99 366.248,-94.7132 361.919,-91.0604 357.201,-87.9518"/>
<polygon fill="none" stroke="black" points="358.753,-84.8087 348.327,-82.9246 355.303,-90.8992 358.753,-84.8087"/>
</g>
<!-- \\Riverline\\DynamoDB\\UpdateAction -->
<g id="node16" class="node"><title>\\Riverline\\DynamoDB\\UpdateAction</title>
<a xlink:href="Riverline.DynamoDB.UpdateAction.html" xlink:title="UpdateAction" target="_parent">
<polygon fill="none" stroke="black" points="574,-636 476,-636 476,-600 574,-600 574,-636"/>
<text text-anchor="middle" x="525" y="-615.1" font-family="Courier,monospace" font-size="11.00">UpdateAction</text>
</a>
</g>
<!-- \\Riverline\\DynamoDB\\Collection -->
<g id="node17" class="node"><title>\\Riverline\\DynamoDB\\Collection</title>
<a xlink:href="Riverline.DynamoDB.Collection.html" xlink:title="Collection" target="_parent">
<polygon fill="none" stroke="black" points="567,-258 483,-258 483,-222 567,-222 567,-258"/>
<text text-anchor="middle" x="525" y="-237.1" font-family="Courier,monospace" font-size="11.00">Collection</text>
</a>
</g>
<!-- \\Riverline\\DynamoDB\\Collection&#45;&gt;\\IteratorAggregate -->
<g id="edge28" class="edge"><title>\\Riverline\\DynamoDB\\Collection&#45;&gt;\\IteratorAggregate</title>
<path fill="none" stroke="black" stroke-dasharray="1,5" d="M510.344,-221.819C484.996,-191.616 429.901,-131.242 370,-99 362.346,-94.8801 354.04,-91.3704 345.56,-88.3842"/>
<polygon fill="none" stroke="black" points="346.53,-85.0191 335.938,-85.2306 344.35,-91.671 346.53,-85.0191"/>
</g>
<!-- \\Countable -->
<g id="node41" class="node"><title>\\Countable</title>
<ellipse fill="none" stroke="black" cx="264" cy="-18" rx="67.8823" ry="18.3848"/>
<text text-anchor="middle" x="264" y="-14.4" font-family="Times Roman,serif" font-size="14.00" fill="gray">\\Countable</text>
</g>
<!-- \\Riverline\\DynamoDB\\Collection&#45;&gt;\\Countable -->
<g id="edge30" class="edge"><title>\\Riverline\\DynamoDB\\Collection&#45;&gt;\\Countable</title>
<path fill="none" stroke="black" stroke-dasharray="1,5" d="M515.962,-221.964C495.567,-183.189 442.072,-91.6345 370,-45 359.306,-38.0807 346.94,-32.9337 334.512,-29.1053"/>
<polygon fill="none" stroke="black" points="335.136,-25.6452 324.562,-26.3091 333.242,-32.3842 335.136,-25.6452"/>
</g>
<!-- \\Riverline\\DynamoDB\\Attribute -->
<g id="node18" class="node"><title>\\Riverline\\DynamoDB\\Attribute</title>
<a xlink:href="Riverline.DynamoDB.Attribute.html" xlink:title="Attribute" target="_parent">
<polygon fill="none" stroke="black" points="563,-366 487,-366 487,-330 563,-330 563,-366"/>
<text text-anchor="middle" x="525" y="-345.1" font-family="Courier,monospace" font-size="11.00">Attribute</text>
</a>
</g>
<!-- \\Riverline\\DynamoDB\\Attribute&#45;&gt;\\IteratorAggregate -->
<g id="edge32" class="edge"><title>\\Riverline\\DynamoDB\\Attribute&#45;&gt;\\IteratorAggregate</title>
<path fill="none" stroke="black" stroke-dasharray="1,5" d="M486.119,-344.954C468.101,-341.618 447.697,-334.803 434,-321 361.673,-248.11 443.735,-170.465 370,-99 365.632,-94.7665 360.698,-91.1698 355.407,-88.1166"/>
<polygon fill="none" stroke="black" points="356.709,-84.8533 346.204,-83.4753 353.557,-91.1034 356.709,-84.8533"/>
</g>
<!-- \\Riverline\\DynamoDB\\AttributeCondition -->
<g id="node19" class="node"><title>\\Riverline\\DynamoDB\\AttributeCondition</title>
<a xlink:href="Riverline.DynamoDB.AttributeCondition.html" xlink:title="AttributeCondition" target="_parent">
<polygon fill="none" stroke="black" points="594,-474 456,-474 456,-438 594,-438 594,-474"/>
<text text-anchor="middle" x="525" y="-453.1" font-family="Courier,monospace" font-size="11.00">AttributeCondition</text>
</a>
</g>
<!-- \\Riverline\\DynamoDB\\ExpectedAttribute -->
<g id="node20" class="node"><title>\\Riverline\\DynamoDB\\ExpectedAttribute</title>
<a xlink:href="Riverline.DynamoDB.ExpectedAttribute.html" xlink:title="ExpectedAttribute" target="_parent">
<polygon fill="none" stroke="black" points="590,-420 460,-420 460,-384 590,-384 590,-420"/>
<text text-anchor="middle" x="525" y="-399.1" font-family="Courier,monospace" font-size="11.00">ExpectedAttribute</text>
</a>
</g>
<!-- \\Riverline\\DynamoDB\\Item -->
<g id="node21" class="node"><title>\\Riverline\\DynamoDB\\Item</title>
<a xlink:href="Riverline.DynamoDB.Item.html" xlink:title="Item" target="_parent">
<polygon fill="none" stroke="black" points="552,-582 498,-582 498,-546 552,-546 552,-582"/>
<text text-anchor="middle" x="525" y="-561.1" font-family="Courier,monospace" font-size="11.00">Item</text>
</a>
</g>
<!-- \\Riverline\\DynamoDB\\Item&#45;&gt;\\ArrayAccess -->
<g id="edge34" class="edge"><title>\\Riverline\\DynamoDB\\Item&#45;&gt;\\ArrayAccess</title>
<path fill="none" stroke="black" stroke-dasharray="1,5" d="M497.859,-563.315C477.29,-561.275 449.933,-555.029 434,-537 319.425,-407.352 487.082,-280.389 370,-153 363.205,-145.607 354.695,-140.116 345.469,-136.057"/>
<polygon fill="none" stroke="black" points="346.631,-132.754 336.04,-132.458 344.134,-139.294 346.631,-132.754"/>
</g>
<!-- \\Riverline\\DynamoDB\\Item&#45;&gt;\\IteratorAggregate -->
<g id="edge36" class="edge"><title>\\Riverline\\DynamoDB\\Item&#45;&gt;\\IteratorAggregate</title>
<path fill="none" stroke="black" stroke-dasharray="1,5" d="M497.759,-563.403C477.134,-561.412 449.751,-555.187 434,-537 305.207,-388.284 501.67,-245.175 370,-99 366.187,-94.767 361.812,-91.1553 357.059,-88.0774"/>
<polygon fill="none" stroke="black" points="358.573,-84.9141 348.135,-83.0949 355.16,-91.0259 358.573,-84.9141"/>
</g>
<!-- \\Riverline\\DynamoDB\\Connection -->
<g id="node22" class="node"><title>\\Riverline\\DynamoDB\\Connection</title>
<a xlink:href="Riverline.DynamoDB.Connection.html" xlink:title="Connection" target="_parent">
<polygon fill="none" stroke="black" points="567,-312 483,-312 483,-276 567,-276 567,-312"/>
<text text-anchor="middle" x="525" y="-291.1" font-family="Courier,monospace" font-size="11.00">Connection</text>
</a>
</g>
<!-- \\Riverline\\DynamoDB\\AttributeUpdate -->
<g id="node23" class="node"><title>\\Riverline\\DynamoDB\\AttributeUpdate</title>
<a xlink:href="Riverline.DynamoDB.AttributeUpdate.html" xlink:title="AttributeUpdate" target="_parent">
<polygon fill="none" stroke="black" points="584,-528 466,-528 466,-492 584,-492 584,-528"/>
<text text-anchor="middle" x="525" y="-507.1" font-family="Courier,monospace" font-size="11.00">AttributeUpdate</text>
</a>
</g>
<!-- \\Riverline\\DynamoDB\\AttributeUpdate&#45;&gt;\\ArrayAccess -->
<g id="edge38" class="edge"><title>\\Riverline\\DynamoDB\\AttributeUpdate&#45;&gt;\\ArrayAccess</title>
<path fill="none" stroke="black" stroke-dasharray="1,5" d="M465.782,-502.481C453.856,-498.422 442.417,-492.274 434,-483 333.597,-372.368 472.542,-261.653 370,-153 363.108,-145.697 354.541,-140.26 345.285,-136.228"/>
<polygon fill="none" stroke="black" points="346.428,-132.918 335.836,-132.648 343.947,-139.464 346.428,-132.918"/>
</g>
<!-- \\Riverline\\DynamoDB\\AttributeUpdate&#45;&gt;\\IteratorAggregate -->
<g id="edge40" class="edge"><title>\\Riverline\\DynamoDB\\AttributeUpdate&#45;&gt;\\IteratorAggregate</title>
<path fill="none" stroke="black" stroke-dasharray="1,5" d="M465.6,-502.645C453.683,-498.577 442.294,-492.385 434,-483 319.425,-353.352 487.082,-226.389 370,-99 366.105,-94.7617 361.646,-91.1486 356.811,-88.072"/>
<polygon fill="none" stroke="black" points="358.194,-84.8385 347.744,-83.0944 354.825,-90.9747 358.194,-84.8385"/>
</g>
</g>
</svg>
