<?xml version="1.0" encoding="UTF-8" standalone="no"?>
<!DOCTYPE svg PUBLIC "-//W3C//DTD SVG 1.1//EN"
 "http://www.w3.org/Graphics/SVG/1.1/DTD/svg11.dtd">
<!-- Generated by graphviz version 2.26.3 (20100126.1600)
 -->
<!-- Title: G Pages: 1 -->
<svg width="648pt" height="878pt"
 viewBox="0.00 0.00 648.00 878.00" xmlns="http://www.w3.org/2000/svg" xmlns:xlink="http://www.w3.org/1999/xlink">
<g id="graph1" class="graph" transform="scale(1 1) rotate(0) translate(4 874)">
<title>G</title>
<polygon fill="white" stroke="white" points="-4,5 -4,-874 645,-874 645,5 -4,5"/>
<g id="graph2" class="cluster"><title>cluster_Riverline</title>
<polyline fill="none" stroke="gray" points="20,-206 620,-206 "/>
<path fill="none" stroke="gray" d="M620,-206C626,-206 632,-212 632,-218"/>
<polyline fill="none" stroke="gray" points="632,-218 632,-850 "/>
<path fill="none" stroke="gray" d="M632,-850C632,-856 626,-862 620,-862"/>
<polyline fill="none" stroke="gray" points="620,-862 20,-862 "/>
<path fill="none" stroke="gray" d="M20,-862C14,-862 8,-856 8,-850"/>
<polyline fill="none" stroke="gray" points="8,-850 8,-218 "/>
<path fill="none" stroke="gray" d="M8,-218C8,-212 14,-206 20,-206"/>
<text text-anchor="middle" x="320" y="-848.1" font-family="Times Roman,serif" font-size="11.00" fill="gray">Riverline</text>
</g>
<g id="graph3" class="cluster"><title>cluster_Riverline\DynamoDB</title>
<polyline fill="none" stroke="gray" points="28,-214 612,-214 "/>
<path fill="none" stroke="gray" d="M612,-214C618,-214 624,-220 624,-226"/>
<polyline fill="none" stroke="gray" points="624,-226 624,-820 "/>
<path fill="none" stroke="gray" d="M624,-820C624,-826 618,-832 612,-832"/>
<polyline fill="none" stroke="gray" points="612,-832 28,-832 "/>
<path fill="none" stroke="gray" d="M28,-832C22,-832 16,-826 16,-820"/>
<polyline fill="none" stroke="gray" points="16,-820 16,-226 "/>
<path fill="none" stroke="gray" d="M16,-226C16,-220 22,-214 28,-214"/>
<text text-anchor="middle" x="320" y="-818.1" font-family="Times Roman,serif" font-size="11.00" fill="gray">DynamoDB</text>
</g>
<g id="graph4" class="cluster"><title>cluster_Riverline\DynamoDB\Context</title>
<polyline fill="none" stroke="gray" points="36,-674 548,-674 "/>
<path fill="none" stroke="gray" d="M548,-674C554,-674 560,-680 560,-686"/>
<polyline fill="none" stroke="gray" points="560,-686 560,-790 "/>
<path fill="none" stroke="gray" d="M560,-790C560,-796 554,-802 548,-802"/>
<polyline fill="none" stroke="gray" points="548,-802 36,-802 "/>
<path fill="none" stroke="gray" d="M36,-802C30,-802 24,-796 24,-790"/>
<polyline fill="none" stroke="gray" points="24,-790 24,-686 "/>
<path fill="none" stroke="gray" d="M24,-686C24,-680 30,-674 36,-674"/>
<text text-anchor="middle" x="292" y="-788.1" font-family="Times Roman,serif" font-size="11.00" fill="gray">Context</text>
</g>
<g id="graph5" class="cluster"><title>cluster_Riverline\DynamoDB\Exception</title>
<polyline fill="none" stroke="gray" points="446,-484 604,-484 "/>
<path fill="none" stroke="gray" d="M604,-484C610,-484 616,-490 616,-496"/>
<polyline fill="none" stroke="gray" points="616,-496 616,-654 "/>
<path fill="none" stroke="gray" d="M616,-654C616,-660 610,-666 604,-666"/>
<polyline fill="none" stroke="gray" points="604,-666 446,-666 "/>
<path fill="none" stroke="gray" d="M446,-666C440,-666 434,-660 434,-654"/>
<polyline fill="none" stroke="gray" points="434,-654 434,-496 "/>
<path fill="none" stroke="gray" d="M434,-496C434,-490 440,-484 446,-484"/>
<text text-anchor="middle" x="525" y="-652.1" font-family="Times Roman,serif" font-size="11.00" fill="gray">Exception</text>
</g>
<!-- \\Riverline\\DynamoDB\\Context\\Query -->
<g id="node4" class="node"><title>\\Riverline\\DynamoDB\\Context\\Query</title>
<a xlink:href="Riverline.DynamoDB.Context.Query.html" xlink:title="Query" target="_parent">
<polygon fill="none" stroke="black" points="552,-772 498,-772 498,-736 552,-736 552,-772"/>
<text text-anchor="middle" x="525" y="-751.1" font-family="Courier,monospace" font-size="11.00">Query</text>
</a>
</g>
<!-- \\Riverline\\DynamoDB\\Context\\Collection -->
<g id="node7" class="node"><title>\\Riverline\\DynamoDB\\Context\\Collection</title>
<a xlink:href="Riverline.DynamoDB.Context.Collection.html" xlink:title="«abstract»&lt;br/&gt;Collection" target="_parent">
<polygon fill="none" stroke="black" points="306,-745 222,-745 222,-709 306,-709 306,-745"/>
<text text-anchor="start" x="230" y="-732.433" font-family="Courier,monospace" font-size="11.00">«abstract»</text>
<text text-anchor="start" x="230" y="-719.233" font-family="Courier,monospace" font-size="11.00">Collection</text>
</a>
</g>
<!-- \\Riverline\\DynamoDB\\Context\\Query&#45;&gt;\\Riverline\\DynamoDB\\Context\\Collection -->
<g id="edge14" class="edge"><title>\\Riverline\\DynamoDB\\Context\\Query&#45;&gt;\\Riverline\\DynamoDB\\Context\\Collection</title>
<path fill="none" stroke="black" d="M497.562,-751.162C454.773,-746.735 371.399,-738.11 316.716,-732.453"/>
<polygon fill="none" stroke="black" points="316.827,-728.946 306.52,-731.399 316.106,-735.909 316.827,-728.946"/>
</g>
<!-- \\Riverline\\DynamoDB\\Context\\Get -->
<g id="node5" class="node"><title>\\Riverline\\DynamoDB\\Context\\Get</title>
<a xlink:href="Riverline.DynamoDB.Context.Get.html" xlink:title="Get" target="_parent">
<polygon fill="none" stroke="black" points="86,-745 32,-745 32,-709 86,-709 86,-745"/>
<text text-anchor="middle" x="59" y="-724.1" font-family="Courier,monospace" font-size="11.00">Get</text>
</a>
</g>
<!-- \\Riverline\\DynamoDB\\Context\\Scan -->
<g id="node6" class="node"><title>\\Riverline\\DynamoDB\\Context\\Scan</title>
<a xlink:href="Riverline.DynamoDB.Context.Scan.html" xlink:title="Scan" target="_parent">
<polygon fill="none" stroke="black" points="552,-718 498,-718 498,-682 552,-682 552,-718"/>
<text text-anchor="middle" x="525" y="-697.1" font-family="Courier,monospace" font-size="11.00">Scan</text>
</a>
</g>
<!-- \\Riverline\\DynamoDB\\Context\\Scan&#45;&gt;\\Riverline\\DynamoDB\\Context\\Collection -->
<g id="edge16" class="edge"><title>\\Riverline\\DynamoDB\\Context\\Scan&#45;&gt;\\Riverline\\DynamoDB\\Context\\Collection</title>
<path fill="none" stroke="black" d="M497.562,-702.838C454.773,-707.265 371.399,-715.89 316.716,-721.547"/>
<polygon fill="none" stroke="black" points="316.106,-718.091 306.52,-722.601 316.827,-725.054 316.106,-718.091"/>
</g>
<!-- \\Riverline\\DynamoDB\\Context\\Collection&#45;&gt;\\Riverline\\DynamoDB\\Context\\Get -->
<g id="edge18" class="edge"><title>\\Riverline\\DynamoDB\\Context\\Collection&#45;&gt;\\Riverline\\DynamoDB\\Context\\Get</title>
<path fill="none" stroke="black" d="M221.025,-727C184.211,-727 131.718,-727 96.5591,-727"/>
<polygon fill="none" stroke="black" points="96.2407,-723.5 86.2406,-727 96.2406,-730.5 96.2407,-723.5"/>
</g>
<!-- \\Riverline\\DynamoDB\\Exception\\ConfigurationException -->
<g id="node9" class="node"><title>\\Riverline\\DynamoDB\\Exception\\ConfigurationException</title>
<a xlink:href="Riverline.DynamoDB.Exception.ConfigurationException.html" xlink:title="ConfigurationException" target="_parent">
<polygon fill="none" stroke="black" points="607,-636 443,-636 443,-600 607,-600 607,-636"/>
<text text-anchor="middle" x="525" y="-615.1" font-family="Courier,monospace" font-size="11.00">ConfigurationException</text>
</a>
</g>
<!-- \\Exception -->
<g id="node20" class="node"><title>\\Exception</title>
<ellipse fill="none" stroke="black" cx="264" cy="-180" rx="62.9325" ry="18.3848"/>
<text text-anchor="middle" x="264" y="-176.4" font-family="Times Roman,serif" font-size="14.00" fill="gray">\Exception</text>
</g>
<!-- \\Riverline\\DynamoDB\\Exception\\ConfigurationException&#45;&gt;\\Exception -->
<g id="edge8" class="edge"><title>\\Riverline\\DynamoDB\\Exception\\ConfigurationException&#45;&gt;\\Exception</title>
<path fill="none" stroke="black" d="M446.042,-599.764C441.734,-597.215 437.672,-594.31 434,-591 315.639,-484.325 277.636,-282.582 267.347,-208.343"/>
<polygon fill="none" stroke="black" points="270.805,-207.796 266.023,-198.341 263.865,-208.714 270.805,-207.796"/>
</g>
<!-- \\Riverline\\DynamoDB\\Exception\\ServerException -->
<g id="node10" class="node"><title>\\Riverline\\DynamoDB\\Exception\\ServerException</title>
<a xlink:href="Riverline.DynamoDB.Exception.ServerException.html" xlink:title="ServerException" target="_parent">
<polygon fill="none" stroke="black" points="584,-582 466,-582 466,-546 584,-546 584,-582"/>
<text text-anchor="middle" x="525" y="-561.1" font-family="Courier,monospace" font-size="11.00">ServerException</text>
</a>
</g>
<!-- \\Riverline\\DynamoDB\\Exception\\ServerException&#45;&gt;\\Exception -->
<g id="edge10" class="edge"><title>\\Riverline\\DynamoDB\\Exception\\ServerException&#45;&gt;\\Exception</title>
<path fill="none" stroke="black" d="M465.995,-554.319C454.472,-550.372 443.143,-544.818 434,-537 328.262,-446.591 283.399,-275.598 269.294,-208.264"/>
<polygon fill="none" stroke="black" points="272.707,-207.481 267.29,-198.376 265.846,-208.872 272.707,-207.481"/>
</g>
<!-- \\Riverline\\DynamoDB\\Exception\\AttributesException -->
<g id="node11" class="node"><title>\\Riverline\\DynamoDB\\Exception\\AttributesException</title>
<a xlink:href="Riverline.DynamoDB.Exception.AttributesException.html" xlink:title="AttributesException" target="_parent">
<polygon fill="none" stroke="black" points="597,-528 453,-528 453,-492 597,-492 597,-528"/>
<text text-anchor="middle" x="525" y="-507.1" font-family="Courier,monospace" font-size="11.00">AttributesException</text>
</a>
</g>
<!-- \\Riverline\\DynamoDB\\Exception\\AttributesException&#45;&gt;\\Exception -->
<g id="edge12" class="edge"><title>\\Riverline\\DynamoDB\\Exception\\AttributesException&#45;&gt;\\Exception</title>
<path fill="none" stroke="black" d="M452.379,-498.459C445.813,-495.676 439.556,-492.24 434,-488 337.153,-414.096 288.02,-268.38 271.042,-207.62"/>
<polygon fill="none" stroke="black" points="274.416,-206.689 268.415,-197.958 267.661,-208.526 274.416,-206.689"/>
</g>
<!-- \\Riverline\\DynamoDB\\Collection -->
<g id="node12" class="node"><title>\\Riverline\\DynamoDB\\Collection</title>
<a xlink:href="Riverline.DynamoDB.Collection.html" xlink:title="Collection" target="_parent">
<polygon fill="none" stroke="black" points="567,-474 483,-474 483,-438 567,-438 567,-474"/>
<text text-anchor="middle" x="525" y="-453.1" font-family="Courier,monospace" font-size="11.00">Collection</text>
</a>
</g>
<!-- \\IteratorAggregate -->
<g id="node27" class="node"><title>\\IteratorAggregate</title>
<ellipse fill="none" stroke="black" cx="264" cy="-72" rx="106.066" ry="18.3848"/>
<text text-anchor="middle" x="264" y="-68.4" font-family="Times Roman,serif" font-size="14.00" fill="gray">\\IteratorAggregate</text>
</g>
<!-- \\Riverline\\DynamoDB\\Collection&#45;&gt;\\IteratorAggregate -->
<g id="edge20" class="edge"><title>\\Riverline\\DynamoDB\\Collection&#45;&gt;\\IteratorAggregate</title>
<path fill="none" stroke="black" stroke-dasharray="1,5" d="M482.787,-452.955C465.372,-449.544 446.404,-442.668 434,-429 333.597,-318.368 472.542,-207.653 370,-99 365.908,-94.6646 361.227,-90.9865 356.161,-87.8697"/>
<polygon fill="none" stroke="black" points="357.778,-84.7655 347.309,-83.1371 354.477,-90.9386 357.778,-84.7655"/>
</g>
<!-- \\Countable -->
<g id="node29" class="node"><title>\\Countable</title>
<ellipse fill="none" stroke="black" cx="264" cy="-126" rx="67.8823" ry="18.3848"/>
<text text-anchor="middle" x="264" y="-122.4" font-family="Times Roman,serif" font-size="14.00" fill="gray">\\Countable</text>
</g>
<!-- \\Riverline\\DynamoDB\\Collection&#45;&gt;\\Countable -->
<g id="edge22" class="edge"><title>\\Riverline\\DynamoDB\\Collection&#45;&gt;\\Countable</title>
<path fill="none" stroke="black" stroke-dasharray="1,5" d="M482.555,-452.646C465.31,-449.165 446.537,-442.32 434,-429 347.697,-337.305 458.075,-242.994 370,-153 361.543,-144.358 350.735,-138.345 339.269,-134.187"/>
<polygon fill="none" stroke="black" points="340.11,-130.783 329.521,-131.114 338.006,-137.459 340.11,-130.783"/>
</g>
<!-- \\Riverline\\DynamoDB\\Attribute -->
<g id="node13" class="node"><title>\\Riverline\\DynamoDB\\Attribute</title>
<a xlink:href="Riverline.DynamoDB.Attribute.html" xlink:title="Attribute" target="_parent">
<polygon fill="none" stroke="black" points="563,-420 487,-420 487,-384 563,-384 563,-420"/>
<text text-anchor="middle" x="525" y="-399.1" font-family="Courier,monospace" font-size="11.00">Attribute</text>
</a>
</g>
<!-- \\Riverline\\DynamoDB\\Attribute&#45;&gt;\\IteratorAggregate -->
<g id="edge24" class="edge"><title>\\Riverline\\DynamoDB\\Attribute&#45;&gt;\\IteratorAggregate</title>
<path fill="none" stroke="black" stroke-dasharray="1,5" d="M486.257,-399.348C468.049,-396.118 447.44,-389.28 434,-375 347.697,-283.305 458.075,-188.994 370,-99 365.788,-94.6961 360.993,-91.0442 355.824,-87.9488"/>
<polygon fill="none" stroke="black" points="357.294,-84.7682 346.809,-83.2479 354.058,-90.975 357.294,-84.7682"/>
</g>
<!-- \\Riverline\\DynamoDB\\AttributeCondition -->
<g id="node14" class="node"><title>\\Riverline\\DynamoDB\\AttributeCondition</title>
<a xlink:href="Riverline.DynamoDB.AttributeCondition.html" xlink:title="AttributeCondition" target="_parent">
<polygon fill="none" stroke="black" points="594,-366 456,-366 456,-330 594,-330 594,-366"/>
<text text-anchor="middle" x="525" y="-345.1" font-family="Courier,monospace" font-size="11.00">AttributeCondition</text>
</a>
</g>
<!-- \\Riverline\\DynamoDB\\Item -->
<g id="node15" class="node"><title>\\Riverline\\DynamoDB\\Item</title>
<a xlink:href="Riverline.DynamoDB.Item.html" xlink:title="Item" target="_parent">
<polygon fill="none" stroke="black" points="552,-312 498,-312 498,-276 552,-276 552,-312"/>
<text text-anchor="middle" x="525" y="-291.1" font-family="Courier,monospace" font-size="11.00">Item</text>
</a>
</g>
<!-- \\Riverline\\DynamoDB\\Item&#45;&gt;\\IteratorAggregate -->
<g id="edge28" class="edge"><title>\\Riverline\\DynamoDB\\Item&#45;&gt;\\IteratorAggregate</title>
<path fill="none" stroke="black" stroke-dasharray="1,5" d="M497.979,-292.283C478.019,-289.66 451.402,-283.134 434,-267 375.408,-212.675 429.641,-152.171 370,-99 365.209,-94.7289 359.836,-91.115 354.118,-88.0592"/>
<polygon fill="none" stroke="black" points="355.419,-84.8032 344.881,-83.7023 352.432,-91.1341 355.419,-84.8032"/>
</g>
<!-- \\ArrayAccess -->
<g id="node32" class="node"><title>\\ArrayAccess</title>
<ellipse fill="none" stroke="black" cx="264" cy="-18" rx="77.0746" ry="18.3848"/>
<text text-anchor="middle" x="264" y="-14.4" font-family="Times Roman,serif" font-size="14.00" fill="gray">\\ArrayAccess</text>
</g>
<!-- \\Riverline\\DynamoDB\\Item&#45;&gt;\\ArrayAccess -->
<g id="edge26" class="edge"><title>\\Riverline\\DynamoDB\\Item&#45;&gt;\\ArrayAccess</title>
<path fill="none" stroke="black" stroke-dasharray="1,5" d="M497.585,-292.691C477.418,-290.282 450.715,-283.845 434,-267 361.673,-194.11 443.735,-116.465 370,-45 362.739,-37.9621 353.912,-32.6839 344.485,-28.7378"/>
<polygon fill="none" stroke="black" points="345.487,-25.3775 334.894,-25.2199 343.077,-31.9494 345.487,-25.3775"/>
</g>
<!-- \\Riverline\\DynamoDB\\Connection -->
<g id="node16" class="node"><title>\\Riverline\\DynamoDB\\Connection</title>
<a xlink:href="Riverline.DynamoDB.Connection.html" xlink:title="Connection" target="_parent">
<polygon fill="none" stroke="black" points="567,-258 483,-258 483,-222 567,-222 567,-258"/>
<text text-anchor="middle" x="525" y="-237.1" font-family="Courier,monospace" font-size="11.00">Connection</text>
</a>
</g>
</g>
</svg>
